<?xml version="1.0" encoding="UTF-8" standalone="no"?>
<!-- Created with Inkscape (http://www.inkscape.org/) -->

<svg
   width="211.547mm"
   height="211.63699mm"
   viewBox="0 0 211.547 211.63699"
   version="1.1"
   id="svg1"
   xml:space="preserve"
   inkscape:version="1.4.3 (0d15f75, 2025-12-25)"
   sodipodi:docname="calendar.svg"
   xmlns:inkscape="http://www.inkscape.org/namespaces/inkscape"
   xmlns:sodipodi="http://sodipodi.sourceforge.net/DTD/sodipodi-0.dtd"
   xmlns="http://www.w3.org/2000/svg"
   xmlns:svg="http://www.w3.org/2000/svg"><sodipodi:namedview
     id="namedview1"
     pagecolor="#ffffff"
     bordercolor="#000000"
     borderopacity="0.25"
     inkscape:showpageshadow="2"
     inkscape:pageopacity="0.0"
     inkscape:pagecheckerboard="0"
     inkscape:deskcolor="#d1d1d1"
     inkscape:document-units="mm"
     inkscape:zoom="0.77326038"
     inkscape:cx="397.02021"
     inkscape:cy="561.25984"
     inkscape:window-width="1920"
     inkscape:window-height="1112"
     inkscape:window-x="-8"
     inkscape:window-y="-8"
     inkscape:window-maximized="1"
     inkscape:current-layer="layer1" /><defs
     id="defs1" /><g
     inkscape:label="Layer 1"
     inkscape:groupmode="layer"
     id="layer1"><path
       style="fill:#000000"
       d="m 154.49757,211.34744 c -7.21544,-0.7535 -15.65781,-3.78114 -21.84243,-7.83322 -3.26995,-2.14243 -5.34906,-3.84836 -8.55415,-7.01875 -7.94052,-7.85454 -12.88965,-17.83195 -14.4793,-29.19013 -0.53658,-3.83389 -0.40498,-12.43671 0.24449,-15.98278 3.25506,-17.7725 15.77663,-32.66841 32.7828,-38.99907 3.1367,-1.16766 6.96862,-2.10154 11.04054,-2.6907 4.47979,-0.64818 12.4357,-0.40153 16.80968,0.52113 20.24281,4.27008 35.79775,19.76305 39.95466,39.79551 2.82375,13.60784 0.13276,27.44534 -7.5719,38.9358 -10.66344,15.9031 -29.12442,24.47352 -48.38439,22.46221 z m 11.62736,-17.58722 c 6.93212,-1.22628 13.07562,-4.4388 18.14079,-9.48606 8.83799,-8.80673 11.99482,-21.13509 8.57228,-33.47721 -0.74783,-2.69677 -2.79185,-6.90619 -4.71751,-9.71518 -1.6996,-2.47924 -5.05813,-5.98812 -7.44347,-7.7767 -9.97561,-7.4799 -23.48133,-8.873 -34.55519,-3.56435 -3.83714,1.83948 -6.57764,3.71308 -9.37389,6.40868 -9.34983,9.01326 -12.63395,22.41765 -8.54772,34.88818 3.19944,9.76416 10.88206,17.70617 20.46221,21.15308 5.7221,2.05879 11.67318,2.59368 17.4625,1.56956 z m -28.83958,-32.50875 v -5.68507 l 9.06198,-0.0696 9.06198,-0.0696 0.0696,-9.06198 0.0696,-9.06198 h 5.68507 5.68506 v 14.81667 14.81666 h -14.81662 -14.81667 z m -127.172539,9.54274 c -4.2643695,-1.03438 -7.7806595,-4.21157 -9.41744654,-8.50924 l -0.596471,-1.56614 -0.07825,-64.690626 c -0.05722,-47.30434 0.0022,-65.11728 0.220974,-66.27813 0.604942,-3.209402 2.75069904,-6.502292 5.44511404,-8.356099 0.63446,-0.43652 1.958468,-1.110807 2.942241,-1.498415 1.7425015,-0.686549 1.9645555,-0.707355 8.6016975,-0.805953 l 6.813021,-0.101211 v 8.177088 c 0,6.75139 0.07438,8.42765 0.426624,9.61418 1.479658,4.98424 5.362691,8.75739 10.181334,9.89322 2.30866,0.54419 9.283759,0.54419 11.592419,0 4.628789,-1.09108 8.608153,-4.77654 10.130378,-9.38218 0.52055,-1.57497 0.577858,-2.41604 0.680561,-9.98802 l 0.112146,-8.26823 h 28.79162 28.791627 l 0.10616,8.26823 c 0.0977,7.6077 0.15202,8.40714 0.68024,10.0071 1.55985,4.72474 5.90267,8.61546 10.60603,9.5019 2.20708,0.41597 9.13108,0.32953 11.11791,-0.1388 4.75837,-1.12162 8.74742,-4.99608 10.18584,-9.89322 0.34632,-1.17906 0.42211,-2.90529 0.42211,-9.61418 v -8.177088 l 6.81303,0.101211 c 6.68315,0.09928 6.84806,0.115003 8.6516,0.824737 4.28334,1.685597 7.28714,5.213929 8.23139,9.66876 0.53769,2.53676 0.5668,67.23885 0.0302,67.23885 -0.19295,0 -1.60491,-0.17604 -3.13768,-0.3912 -1.53277,-0.21517 -4.70854,-0.42353 -7.05727,-0.46302 l -4.27041,-0.0718 -2.4e-4,-15.27969 -2.5e-4,-15.27969 H 85.951299 14.77349 l 0.07103,40.811976 0.07104,40.81198 0.827019,1.71979 c 0.45486,0.94589 1.263529,2.22081 1.797043,2.83316 1.22148,1.40198 3.76643,2.67383 5.99481,2.99592 0.975435,0.14099 16.330293,0.24797 36.029567,0.25102 l 34.329689,0.005 0.0083,4.16719 c 0.0072,3.65327 0.379564,8.09785 0.941992,11.24479 l 0.177326,0.99219 -41.772642,-0.0225 c -32.44591,-0.0172 -42.077047,-0.096 -43.135853,-0.35284 z m 33.05087,-28.32482 c -2.272711,-0.6413 -4.059996,-1.69886 -5.783035,-3.4219 -2.609589,-2.60959 -3.81196,-5.5446 -3.81196,-9.30507 0,-2.72815 0.688247,-5.05388 2.138083,-7.22503 1.358988,-2.0351 2.782359,-3.25581 5.178852,-4.44148 7.835036,-3.87641 17.140057,0.97425 18.612264,9.70248 0.958364,5.68183 -2.103552,11.35078 -7.520158,13.92312 -1.808615,0.8589 -2.261385,0.96017 -4.714792,1.05445 -1.876748,0.0721 -3.141385,-0.0163 -4.099254,-0.28657 z m 39.485215,0.0167 c -5.052514,-1.25398 -8.997648,-5.75239 -9.637529,-10.98912 -0.868091,-7.10439 3.948224,-13.5275 10.960991,-14.61775 6.490454,-1.00905 12.968477,3.2057 14.676517,9.54888 0.51547,1.9143 0.390531,5.51062 -0.258955,7.45388 -1.441767,4.31377 -5.220817,7.77738 -9.470193,8.67972 -1.787413,0.37954 -4.572199,0.34597 -6.270831,-0.0756 z M 43.163681,102.76407 c -2.237548,-0.6026 -4.046163,-1.66721 -5.783035,-3.404076 -2.609589,-2.60959 -3.81196,-5.5446 -3.81196,-9.30507 0,-3.77651 1.636292,-7.4831 4.318443,-9.78228 1.735782,-1.48795 4.601388,-2.779 6.904794,-3.11083 8.52452,-1.22809 15.998258,6.30341 14.728286,14.84209 -0.787342,5.29372 -5.113408,9.962226 -10.109452,10.909706 -1.890986,0.35862 -4.601083,0.29375 -6.247076,-0.14954 z m 39.485215,0.0319 c -3.91253,-0.97892 -7.370122,-4.037236 -8.871977,-7.847476 -3.050671,-7.73961 1.966317,-16.47737 10.195439,-17.75672 6.490454,-1.00905 12.968477,3.2057 14.676517,9.54888 0.51547,1.91431 0.390531,5.51062 -0.258955,7.45388 -1.441767,4.31377 -5.220817,7.777376 -9.470193,8.679706 -1.791702,0.38046 -4.5763,0.34571 -6.270831,-0.0783 z m 39.612694,0.0947 c -3.36782,-0.6636 -7.2781,-3.885326 -8.80624,-7.255556 -2.29864,-5.06955 -1.27346,-10.74137 2.65852,-14.70835 4.02459,-4.06041 9.83689,-5.04974 14.91288,-2.53838 2.39649,1.18567 3.81986,2.40638 5.17885,4.44149 2.64233,3.95692 2.87794,9.12728 0.61916,13.58773 -0.86727,1.71264 -3.55331,4.383466 -5.2971,5.267106 -2.7009,1.36865 -6.15736,1.8185 -9.26607,1.20596 z M 36.38217,38.617624 c -1.452842,-0.45841 -2.790954,-1.625 -3.480498,-3.03438 l -0.672627,-1.3748 0.07451,-15.193765 0.07451,-15.1937672 0.772981,-1.139919 c 0.425139,-0.626955 1.318108,-1.460393 1.984375,-1.85208301 1.140773,-0.670648 1.435047,-0.717003 5.047852,-0.795147 3.762264,-0.08138 3.86457,-0.06858 5.290029,0.661459 0.951,0.48705001 1.728576,1.14110801 2.248959,1.89171001 l 0.795383,1.147271 V 19.431329 35.128454 l -0.805498,1.14727 c -0.443025,0.631 -1.335994,1.44493 -1.984376,1.80873 -1.083531,0.60796 -1.478459,0.66595 -4.883043,0.71696 -2.037291,0.0305 -4.045442,-0.0522 -4.462557,-0.18379 z m 90.78527,-0.1159 c -1.48424,-0.52974 -2.24112,-1.10693 -3.04561,-2.3226 l -0.7271,-1.09873 V 19.407297 3.7342028 l 0.79538,-1.147271 c 0.52039,-0.750602 1.29796,-1.40466 2.24896,-1.89171001 1.42636,-0.730506 1.52579,-0.742887 5.31163,-0.661459 3.76326,0.08094 3.88974,0.102585 5.14767,0.880817 0.93831,0.58049101 1.49102,1.18335801 2.02893,2.21302601 l 0.7393,1.41519 V 19.409593 34.276384 l -0.67022,1.34496 c -0.71589,1.4366 -2.06041,2.56131 -3.5844,2.99838 -1.33813,0.38377 -7.06843,0.30175 -8.24454,-0.118 z"
       id="path1" /></g></svg>
