<?xml version="1.0" encoding="UTF-8" standalone="no"?>
<!-- Created with Inkscape (http://www.inkscape.org/) -->

<svg
   width="234.42599mm"
   height="184.993mm"
   viewBox="0 0 234.42599 184.993"
   version="1.1"
   id="svg1"
   xml:space="preserve"
   inkscape:version="1.4.3 (0d15f75, 2025-12-25)"
   sodipodi:docname="fixbike.svg"
   xmlns:inkscape="http://www.inkscape.org/namespaces/inkscape"
   xmlns:sodipodi="http://sodipodi.sourceforge.net/DTD/sodipodi-0.dtd"
   xmlns="http://www.w3.org/2000/svg"
   xmlns:svg="http://www.w3.org/2000/svg"><sodipodi:namedview
     id="namedview1"
     pagecolor="#ffffff"
     bordercolor="#000000"
     borderopacity="0.25"
     inkscape:showpageshadow="2"
     inkscape:pageopacity="0.0"
     inkscape:pagecheckerboard="0"
     inkscape:deskcolor="#d1d1d1"
     inkscape:document-units="mm"
     inkscape:zoom="0.1933151"
     inkscape:cx="1546.6976"
     inkscape:cy="1805.3427"
     inkscape:window-width="1920"
     inkscape:window-height="1112"
     inkscape:window-x="-8"
     inkscape:window-y="-8"
     inkscape:window-maximized="1"
     inkscape:current-layer="layer1" /><defs
     id="defs1" /><g
     inkscape:label="Layer 1"
     inkscape:groupmode="layer"
     id="layer1"><path
       id="path11"
       style="fill:#000000"
       d="m 85.633884,0.00326029 -1.53427,0.0548 -10.67532,6.13761001 c -11.60851,6.6739997 -11.4295,6.5451497 -12.39304,8.8867997 -1.42483,3.46271 1.04029,7.83764 4.85086,8.60877 2.29869,0.46516 3.13512,0.11734 12.21683,-5.07979 l 8.16797,-4.67413 7.61711,4.10517 c 4.18932,2.25777 7.656886,4.17522 7.705986,4.26072 0.049,0.0855 -10.082956,5.99134 -22.515936,13.12427 l -22.60585,12.96923 -0.89194,-1.54719 c -1.1362,-1.96984 -2.66325,-3.60237 -4.18372,-4.4726 -1.68368,-0.96366 -4.44876,-1.48696 -6.27455,-1.187 -1.50759,0.24759 -1.92502,0.46991 -15.18874,8.09098 -11.32744,6.50824 -13.74025,7.96875 -14.23893,8.61911 -3.73905,4.8763 0.53216,11.72859 6.43992,10.33167 1.18566,-0.2804 3.08775,-1.29645 12.05663,-6.44199 l 10.64845,-6.10918 -0.0238,1.15755 c -0.013,0.63661 -0.14405,4.65813 -0.29145,8.93692 -0.14741,4.27879 -0.3375,9.80999 -0.4222,12.29124 -0.0847,2.48125 -0.172,5.01112 -0.1943,5.62188 0,0 -1.4e-4,1.98059 -0.008,3.84938 -5.06154,0.44371 -10.09941,1.71917 -15.1014,3.8256 -3.37527,1.42138 -9.86976,5.50922 -12.55324,7.90185 -4.73688,4.2235 -8.9863503,9.83075 -11.7889503,15.55512 -1.3056,2.66671 -3.0523,7.79213 -3.73672001,10.9647 -1.15899,5.37245 -0.94853,8.01758 0.91881001,11.5347 0.78558,1.47958 1.45374,2.42193 2.33836,3.29851 3.38723,3.35633 8.1904503,4.70892 12.8932703,3.63027 1.25977,-0.28895 2.67079,-1.05372 11.27011,-6.10919 l 9.82989,-5.77898 1.61024,-0.13694 c 7.5072,-0.63796 13.07584,7.15081 9.90999,13.86065 -1.21104,2.56668 -1.57596,2.8612 -10.45518,8.44962 -5.82366,3.66527 -8.37738,5.38583 -9.18238,6.1867 -3.25856,3.24193 -4.57879,8.36193 -3.40445,13.20074 0.49928,2.05724 2.54122,5.33384 4.15427,6.66626 1.91589,1.5826 3.37651,2.2825 6.33346,3.03496 8.78773,2.23622 18.2008,1.72982 27.35131,-1.47174 5.57199,-1.94954 12.13704,-5.99633 16.83721,-10.3787 8.11391,-7.56529 13.8809,-19.14497 14.89987,-29.91755 0.14177,-1.49877 0.29773,-3.00067 0.34623,-3.33727 0.0753,-0.52276 1.50666,-1.46506 34.699686,-21.69273 33.31314,-20.02586 34.81142,-20.8567 35.30431,-20.67781 0.31735,0.11517 1.70471,0.68321 3.08301,1.26194 9.90662,4.15976 22.75297,4.47346 33.18971,0.8108 6.04571,-2.12169 12.67432,-6.06096 17.00103,-10.10274 7.10545,-6.63751 11.97603,-14.77599 14.1521,-23.64817 0.73223,-2.98536 0.80687,-4.61433 0.32298,-7.06365 -0.40739,-2.06217 -2.31486,-5.42077 -3.88038,-6.83266 -3.68227,-3.32088 -8.78353,-4.55374 -13.1532,-3.17861 -1.07947,0.33972 -3.78616,1.80292 -9.73274,5.26169 -9.06663,5.2735 -9.49615,5.45989 -12.31191,5.33042 -7.36093,-0.3384 -11.55789,-8.95728 -7.4688,-15.33808 l 0.87695,-1.36891 9.68055,-6.0296 c 8.46861,-5.27506 9.80154,-6.17094 10.64689,-7.15615 3.1558,-3.67784 4.23126,-8.58869 2.88716,-13.18163 -0.35108,-1.19951 -0.86161,-2.23734 -1.78697,-3.63234 -2.19968,-3.3159597 -4.41527,-4.7476797 -9.66194,-6.2430297 -3.09829,-0.88305 -8.40556,-1.73901 -11.35331,-1.83141 -6.32768,-0.19818 -13.23302,0.94644 -19.15697,3.17552 -3.35595,1.26279 -9.98801,5.1196097 -12.81937,7.4548397 -5.62082,4.63592 -9.96721,10.03093 -13.02298,16.1587 -1.85595,-0.81007 -3.62744,-1.65453 -4.72116,-2.25877 -2.44328,-1.34981 -5.11496,-2.7971 -15.52205,-8.40672 C 120.8296,17.82421 112.01658,13.06603 104.03456,8.7536503 96.052544,4.4412803 88.992274,0.69620029 88.345074,0.43116029 c -0.64719,-0.26505 -1.86714,-0.45778 -2.71094,-0.42788 z M 187.72946,12.83349 c 1.02033,-5.4e-4 1.97033,0.0381 2.78587,0.11989 3.49466,0.35044 7.96615,1.35238 9.64903,2.16214 0.85759,0.41265 1.52907,1.04026 1.973,1.76888 0.73982,1.21444 0.84712,2.70872 0.12609,3.95118 -0.41753,0.71944 -1.54126,1.47625 -10.15183,6.83576 -9.38369,5.84072 -9.71705,6.06929 -10.8102,7.40834 -4.92214,6.02944 -6.24607,13.13895 -3.7083,19.91558 3.40897,9.10293 12.83599,14.24366 22.35936,12.19253 1.96804,-0.42388 2.52677,-0.67897 7.11378,-3.24321 2.73805,-1.53063 6.68937,-3.80768 8.78034,-5.06016 2.09099,-1.25247 4.17085,-2.35476 4.62194,-2.44946 1.02951,-0.216 2.83802,0.58854 3.66231,1.62936 1.01397,1.28026 1.01095,2.50831 -0.0134,5.72058 -1.09825,3.44393 -1.91754,5.29209 -3.64991,8.23464 -2.40687,4.08818 -5.57866,7.72738 -9.40821,10.79417 -2.33709,1.87162 -8.42409,5.28463 -10.95231,6.14123 -7.63512,2.58693 -15.27067,2.90812 -22.74124,0.95756 -3.23533,-0.84474 -5.26732,-1.64943 -8.6894,-3.44216 -1.37033,-0.71787 -2.67318,-1.36636 -2.89491,-1.44126 -0.0922,-0.0311 -0.6382,0.22992 -1.87947,0.92604 0,0 -25.22493,14.98753 -37.75118,22.61103 -12.56289,7.56196 -37.542416,22.96139 -37.542416,22.96139 -1.19301,0.77721 -1.67837,1.14043 -1.69447,1.23713 -0.0387,0.23254 -0.084,1.69692 -0.10025,3.25406 -0.0406,3.88857 -0.29197,6.07539 -1.07435,9.35189 -1.80659,7.56565 -5.67882,14.20941 -11.53366,19.78742 -1.93871,1.84705 -7.78838,5.65891 -10.52546,6.8585 -4.48495,1.96563 -9.16183,3.07672 -13.87151,3.29592 -3.38987,0.15779 -5.39255,0.0176 -8.92296,-0.62477 -3.2929,-0.59918 -4.36857,-1.17394 -5.0121,-2.67839 -0.5232,-1.22309 -0.37714,-3.211 0.2961,-4.02559 0.29499,-0.35692 2.23805,-1.6893 4.31757,-2.96106 2.0795,-1.27174 5.93037,-3.717 8.55762,-5.43378 4.40141,-2.87609 4.88756,-3.25385 6.18412,-4.80591 6.27404,-7.51039 6.20889,-18.31701 -0.154,-25.63202 -4.73686,-5.44563 -11.58093,-7.61192 -19.17247,-6.06733 -1.68596,0.34303 -2.04306,0.53228 -11.56777,6.13606 -8.73998,5.1421 -9.93048,5.78608 -10.75645,5.81928 -2.28226,0.0917 -4.1314503,-2.00515 -4.0188803,-4.55786 0.0828,-1.87848 1.3088803,-6.32872 2.6458403,-9.60355 1.248,-3.0569 4.1179,-7.70791 6.40994,-10.388 4.90775,-5.73862 12.11221,-10.23773 19.56676,-12.21992 6.42519,-1.70846 12.34707,-1.74647 19.02778,-0.12248 3.28641,0.79888 5.9007,1.81625 9.52035,3.70572 l 2.44533,1.27693 25.33127,-15.41095 c 4.06074,-2.47056 8.915946,-5.42819 14.117486,-8.59948 5.22167,-3.13747 10.09369,-6.06749 14.16554,-8.51937 l 25.4,-15.29468 0.0331,-2.77709 c 0.0488,-4.10987 0.38749,-6.9145 1.23404,-10.21488 1.72087,-6.70915 4.53926,-11.96104 9.05629,-16.87545 5.24068,-5.70176 12.56674,-9.9974 19.89698,-11.66596 2.56755,-0.58445 6.25833,-0.93683 9.31933,-0.93844 z m -67.75091,19.62516 c 0.52916,0.0144 2.47652,0.99728 7.78919,3.86384 l 11.83855,6.38824 c -0.39688,2.16524 -0.72688,4.58182 -0.77152,5.85753 -0.0114,0.3278 -0.0506,0.65228 -0.10129,0.88522 -5.68389,3.46551 -12.3838,7.55602 -20.30109,12.38735 l 0.36691,-0.45423 v -5.2e-4 c 0.16951,-5.10836 0.33143,-9.96784 0.49454,-14.86938 0.13944,-4.19034 0.29113,-8.9441 0.33693,-10.56421 0.0459,-1.62011 0.13009,-3.1539 0.18759,-3.40806 0.0131,-0.0579 0.0622,-0.0885 0.16019,-0.0858 z m -13.35526,2.48977 c 0.0277,0.19458 -0.16461,6.88309 -0.42788,14.86317 -0.26326,7.98007 -0.48609,14.97114 -0.49609,15.53601 -0.022,1.30586 -0.0462,2.27158 -0.12299,4.33461 -0.60553,0.3692 -1.2883,0.78626 -1.88464,1.14981 -4.681776,2.81336 -9.654996,5.79972 -14.801676,8.88938 -7.9517,4.77354 -14.68182,8.81233 -20.3879,12.24059 -0.22769,-0.0644 -0.53042,-0.18212 -0.82269,-0.32608 -1.65326,-0.81432 -5.69921,-2.22626 -8.08168,-2.8205 -0.85949,-0.21437 -1.71827,-0.40505 -2.5771,-0.57205 -0.0239,-2.72243 -0.036,-5.93172 -5.2e-4,-6.98046 0.0655,-1.93061 0.23277,-6.87023 0.37207,-10.97659 l 0.25322,-7.46569 24.46414,-14.11284 C 101.65455,37.43257 106.58309,34.66575 106.62329,34.94842 Z" /></g></svg>
