<?xml version="1.0" encoding="UTF-8" standalone="no"?>
<!-- Created with Inkscape (http://www.inkscape.org/) -->

<svg
   width="897.33698mm"
   height="69.042999mm"
   viewBox="0 0 897.33698 69.042999"
   version="1.1"
   id="svg1"
   inkscape:version="1.4.3 (0d15f75, 2025-12-25)"
   sodipodi:docname="restoricycle.svg"
   xmlns:inkscape="http://www.inkscape.org/namespaces/inkscape"
   xmlns:sodipodi="http://sodipodi.sourceforge.net/DTD/sodipodi-0.dtd"
   xmlns="http://www.w3.org/2000/svg"
   xmlns:svg="http://www.w3.org/2000/svg">
  <sodipodi:namedview
     id="namedview1"
     pagecolor="#ffffff"
     bordercolor="#000000"
     borderopacity="0.25"
     inkscape:showpageshadow="2"
     inkscape:pageopacity="0.0"
     inkscape:pagecheckerboard="0"
     inkscape:deskcolor="#d1d1d1"
     inkscape:document-units="mm"
     inkscape:zoom="0.27338883"
     inkscape:cx="398.69954"
     inkscape:cy="493.80218"
     inkscape:window-width="1920"
     inkscape:window-height="1112"
     inkscape:window-x="-8"
     inkscape:window-y="-8"
     inkscape:window-maximized="1"
     inkscape:current-layer="layer1" />
  <defs
     id="defs1" />
  <g
     inkscape:label="Layer 1"
     inkscape:groupmode="layer"
     id="layer1">
    <path
       d="m 77.733762,0.03710963 v 0 q 4.90247,0 7.977755,2.37694997 3.075285,2.37695 3.858405,6.4252 0.834882,4.0111104 -1.095258,8.9135704 l -2.909836,7.39084 q -1.930144,4.90247 -5.923441,8.91358 -3.956158,4.01111 -8.917716,6.4252 -4.946935,2.37695 -9.849405,2.37695 h -7.98507 L 68.485993,68.52307 H 42.822333 L 27.299806,42.8594 17.195803,68.52307 H 3.2600573e-5 L 16.888778,25.62649 h 17.19577 l -0.02925,0.0743 h 30.49185 q 1.52274,0 3.023838,-1.07706 1.501104,-1.07705 2.100619,-2.59979 l 0.467915,-1.18848 q 0.599511,-1.52273 -0.0535,-2.59979 -0.653006,-1.07705 -2.175746,-1.07705 H 20.22265 L 26.963525,0.03712963 h 18.16141 0.0371 z m 17.19577,0 z M 100.03629,17.1586 v 0 l 6.74087,-17.12149037 h 68.48596 L 168.52225,17.1586 Z M 79.813662,68.52307 v 0 l 16.8595,-42.8223 h 68.485958 l -6.75549,17.15863 h -51.36448 l -3.36312,8.54218 h 51.36447 l -6.74088,17.12149 z M 180.85475,16.30438 v 0 q 1.7693,-4.49393 5.40816,-8.1707804 3.65348,-3.71399 8.19304,-5.90524 4.5767,-2.19124997 9.07063,-2.19124997 h 52.21869 L 249.0044,17.1586 h -47.39051 q -1.67129,0 -3.29054,1.18847 -1.60463,1.15134 -2.24801,2.78549 l -0.19009,0.48282 q -0.67262,1.70844 0.0479,2.89691 0.7577,1.18848 2.429,1.18848 h 30.67755 q 4.56821,0 7.42738,2.26553 2.91093,2.2284 3.64785,6.01667 0.78868,3.75113 -1.02448,8.35647 l -3.72869,9.47068 q -1.82778,4.64248 -5.58479,8.43075 -3.75701,3.78827 -8.42261,6.01666 -4.68023,2.26554 -9.28558,2.26554 h -51.77301 l 6.74087,-17.12149 h 47.09339 q 1.74557,0 3.49087,-1.22562 1.75991,-1.26276 2.46178,-3.04547 v 0 q 0.70187,-1.78272 -0.0784,-3.00833 -0.7656,-1.26276 -2.51117,-1.26276 h -31.71747 q -4.23395,0 -6.94339,-2.07983 -2.6723,-2.07984 -3.37764,-5.57099 -0.6682,-3.49115 1.01336,-7.76223 z M 195.28153,0.03710963 Z M 260.20602,17.19574 v 0 L 266.9469,0.07423963 H 335.47 L 328.72913,17.19574 h -25.70081 l -10.11863,25.7008 -3.36312,8.54218 -6.74088,17.12149 H 265.6842 l 6.74088,-17.12149 3.36312,-8.54218 10.11863,-25.7008 z M 381.2781,0.03710963 v 0 q 7.09372,0 12.24329,2.67406997 5.18669,2.67407 8.0239,7.3537004 2.87437,4.67962 3.05476,10.91912 0.23215,6.20237 -2.56071,13.29609 -2.79285,7.09372 -7.92348,13.33322 -5.07885,6.20236 -11.65265,10.91913 -6.52203,4.67962 -13.79971,7.31655 -7.25518,2.67408 -14.3489,2.67408 -7.09371,0 -12.28041,-2.67408 -5.16418,-2.63693 -8.00139,-7.31655 -2.8226,-4.71677 -3.05475,-10.91913 -0.21753,-6.2395 2.57532,-13.33322 1.74006,-4.41965 4.45481,-8.57932 h 18.34711 q -3.83802,3.89969 -5.68043,8.57932 -1.85703,4.71676 -1.08969,8.61645 0.76733,3.89969 3.76044,6.20236 2.99311,2.30268 7.70987,2.30268 4.71677,0 9.52304,-2.30268 4.80627,-2.30267 8.64428,-6.20236 3.83802,-3.89969 5.69505,-8.61645 1.85703,-4.71677 1.0897,-8.61646 -0.76733,-3.89969 -3.76044,-6.20236 -2.99311,-2.30267 -7.70988,-2.30267 h -29.67477 q 5.04083,-5.16245 11.04085,-8.9878604 6.03717,-3.82541 12.53052,-5.97952 6.49335,-2.15410997 12.84427,-2.15410997 z m 96.71229,0 v 0 q 4.90246,0 7.97775,2.37694997 3.07528,2.37695 3.8584,6.4252 0.83488,4.0111104 -1.09526,8.9135704 l -2.90983,7.39084 q -1.93015,4.90247 -5.92344,8.91358 -3.95616,4.01111 -8.91772,6.4252 -4.94693,2.37695 -9.84939,2.37695 h -7.98508 l 15.59679,25.66367 H 443.07895 L 427.55643,42.8594 417.45242,68.52307 H 400.25665 L 417.1454,25.62649 h 17.19577 l -0.0292,0.0743 h 30.49185 q 1.52274,0 3.02384,-1.07706 1.5011,-1.07705 2.10061,-2.59979 l 0.46792,-1.18848 q 0.59951,-1.52273 -0.0535,-2.59979 -0.65302,-1.07705 -2.17576,-1.07705 h -47.68762 l 6.74087,-17.12149037 h 18.16141 0.0371 z m 17.19577,0 z M 480.07028,68.52307 v 0 l 26.9635,-68.48596037 h 17.12149 L 497.19177,68.52307 Z M 534.73865,42.3023 v 0 q -1.47685,3.75113 0.10729,6.4252 1.63588,2.63694 5.42415,2.63694 h 42.26519 l -6.74088,17.12149 h -52.62722 q -4.38251,0 -7.13698,-2.15412 -2.7691,-2.11697 -3.50485,-5.71954 -0.69862,-3.60257 1.02681,-7.98508 l 10.61579,-26.96356 h 17.12149 z m -6.959,-25.81222 v 0 q 1.78392,-4.53107 5.48917,-8.2822004 3.70524,-3.75113 8.33371,-5.97952 4.62846,-2.228389966211 9.15952,-2.228389966211 H 602.7579 L 596.01703,17.12146 h -68.48596 z m 109.01114,4.41964 v 0 L 658.65347,-3.0366211e-5 h 20.90976 L 640.04087,34.54007 v 0 L 626.45676,69.04303 H 609.18671 L 622.77082,34.54007 610.46841,0.03710963 h 20.98404 z m 50.55568,21.39258 v 0 q -1.47685,3.75113 0.10728,6.4252 1.63589,2.63694 5.42416,2.63694 h 42.26519 l -6.74088,17.12149 H 675.775 q -4.38251,0 -7.13698,-2.15412 -2.7691,-2.11697 -3.50486,-5.71954 -0.69861,-3.60257 1.02682,-7.98508 l 10.61579,-26.96356 h 17.12149 z m -6.959,-25.81222 v 0 q 1.78392,-4.53107 5.48916,-8.2822004 3.70525,-3.75113 8.33372,-5.97952 4.62846,-2.228389966211 9.15952,-2.228389966211 h 51.99585 L 748.62485,17.12146 H 680.13889 Z M 783.57742,0.03710963 v 0 L 763.3548,51.40158 h 34.20584 l -6.74088,17.12149 h -36.69421 v 0 H 739.45529 L 766.41879,0.03710963 Z M 822.11011,17.1586 v 0 l 6.74087,-17.12149037 h 68.48596 L 890.59607,17.1586 Z m -20.22263,51.36447 v 0 l 16.8595,-42.8223 h 68.48596 l -6.75549,17.15863 h -51.36447 l -3.36313,8.54218 h 51.36447 l -6.74088,17.12149 z"
       id="text13"
       style="font-size:76.0625px;font-family:'ND LOGOS';-inkscape-font-specification:'ND LOGOS';stroke-width:2.5097;stroke-linecap:round;stroke-linejoin:round;paint-order:markers stroke fill"
       aria-label="Restoricycle" />
  </g>
</svg>
